<?xml version="1.0" encoding="utf-8"?>
<!-- Generator: Adobe Illustrator 16.0.3, SVG Export Plug-In . SVG Version: 6.00 Build 0)  -->
<!DOCTYPE svg PUBLIC "-//W3C//DTD SVG 1.1//EN" "http://www.w3.org/Graphics/SVG/1.1/DTD/svg11.dtd">
<svg version="1.1" id="Layer_1" xmlns="http://www.w3.org/2000/svg" xmlns:xlink="http://www.w3.org/1999/xlink" x="0px" y="0px"
	 width="460px" height="340px" viewBox="0 0 460 340" enable-background="new 0 0 460 340" xml:space="preserve">
<path fill-rule="evenodd" clip-rule="evenodd" fill="#422596" d="M130.65,115.411c0.084,12.931,0.045,25.862,0.045,39.243
	c-0.954-0.857-1.583-1.433-2.223-1.994c-9.386-8.231-20.262-11.647-32.586-9.497c-22.41,3.908-37.238,24.25-34.427,46.909
	c2.385,19.238,18.345,34.748,37.575,36.515c24.704,2.27,45.403-15.984,46.113-40.769c0.191-6.662,0.085-13.335,0.088-20.004
	c0.008-16.875-0.021-33.749,0.042-50.623v-1.97H130.65V115.411z M101.776,212.173c-14.193-0.638-25.209-12.012-25.364-26.296
	c-0.125-11.608,4.197-20.874,14.992-26.077c15.47-7.458,35.507,0.791,38.206,20.486c0.199,1.448,0.306,2.909,0.452,4.364
	C129.959,200.989,117.769,212.888,101.776,212.173z M237.648,176.545c-4.442-22.626-25.237-37.18-47.863-33.473
	c-30.117,4.937-45.218,39.429-28.43,64.938c9.388,14.263,26.909,21.521,43.095,17.804c7.458-1.713,13.825-5.442,19.745-11.263
	c0,3.612,0.088,6.651-0.037,9.677v1.788h14.518v-1.937c-0.06-12.402-0.002-24.805-0.054-37.207
	C238.607,183.412,238.321,179.961,237.648,176.545z M202.402,211.564c-15.885,3.649-31.052-7.337-32.472-23.557
	c-0.967-11.053,2.347-20.371,11.875-26.596c14.989-9.788,37.695-2.716,41.073,18.314c0.266,1.653,0.335,3.308,0.4,4.97
	C223.254,198.205,215.15,208.636,202.402,211.564z M316.013,157.087v-14.032h-1.394c-9.398-0.048-18.096,2.146-25.506,8.202
	c-8.945,7.31-13.138,17.212-15.043,28.276c-1.177,6.834-2.475,13.626-5.473,19.943c-2.854,6.018-7.14,10.396-13.948,11.737
	c-2.162,0.424-4.351,0.674-6.553,0.54l-1.328-0.006v14.055h1.207c9.056,0.107,17.456-1.977,24.719-7.589
	c9.401-7.261,13.813-17.345,15.729-28.715c1.105-6.573,2.151-13.143,4.859-19.301c2.94-6.689,7.593-11.353,15.077-12.594
	c2.104-0.348,4.226-0.588,6.363-0.518H316.013z M397.854,176.545c-4.441-22.626-25.237-37.18-47.864-33.473
	c-30.117,4.937-45.218,39.429-28.43,64.938c9.388,14.263,26.908,21.521,43.095,17.804c7.458-1.713,13.825-5.442,19.744-11.263
	c0,3.612,0.089,6.651-0.034,9.677v1.788h14.517v-1.937c-0.062-12.402-0.003-24.805-0.055-37.207
	C398.812,183.412,398.526,179.961,397.854,176.545z M362.606,211.564c-15.885,3.649-31.052-7.337-32.472-23.557
	c-0.967-11.053,2.348-20.371,11.878-26.596c14.987-9.788,37.694-2.716,41.07,18.314c0.267,1.653,0.34,3.308,0.401,4.97
	C383.459,198.205,375.355,208.636,362.606,211.564z"/>
</svg>
